<?xml version="1.0" encoding="UTF-8" standalone="no"?>
<svg
   width="256"
   height="256"
   viewBox="0 0 256 256"
   role="img"
   aria-labelledby="title desc"
   version="1.1"
   id="svg14"
   sodipodi:docname="mastodon-mcp.svg"
   inkscape:version="1.4 (e7c3feb100, 2024-10-09)"
   xmlns:inkscape="http://www.inkscape.org/namespaces/inkscape"
   xmlns:sodipodi="http://sodipodi.sourceforge.net/DTD/sodipodi-0.dtd"
   xmlns="http://www.w3.org/2000/svg"
   xmlns:svg="http://www.w3.org/2000/svg">
  <sodipodi:namedview
     id="namedview14"
     pagecolor="#ffffff"
     bordercolor="#000000"
     borderopacity="0.25"
     inkscape:showpageshadow="2"
     inkscape:pageopacity="0.0"
     inkscape:pagecheckerboard="0"
     inkscape:deskcolor="#d1d1d1"
     inkscape:zoom="2.2097087"
     inkscape:cx="138.70607"
     inkscape:cy="134.18058"
     inkscape:window-width="1920"
     inkscape:window-height="1120"
     inkscape:window-x="0"
     inkscape:window-y="0"
     inkscape:window-maximized="1"
     inkscape:current-layer="svg14" />
  <title
     id="title">mastodon-mcp-server icon</title>
  <desc
     id="desc">Ikona znázorňující server propojený s komunikační bublinou.</desc>
  <!-- Pozadí -->
  <defs
     id="defs4">
    <linearGradient
       id="bgGrad"
       x1="0%"
       y1="0%"
       x2="100%"
       y2="100%">
      <stop
         offset="0%"
         stop-color="#1b1f3b"
         id="stop1" />
      <stop
         offset="100%"
         stop-color="#3b4a8f"
         id="stop2" />
    </linearGradient>
    <linearGradient
       id="accentGrad"
       x1="96.767247"
       y1="177.73576"
       x2="136.26408"
       y2="177.73576"
       gradientTransform="scale(1.5191091,0.65828059)"
       gradientUnits="userSpaceOnUse">
      <stop
         offset="0%"
         stop-color="#ffb347"
         id="stop3" />
      <stop
         offset="100%"
         stop-color="#ff6f61"
         id="stop4" />
    </linearGradient>
    <linearGradient
       id="paint0_linear_89_8"
       x1="30.5"
       y1="0"
       x2="30.5"
       y2="65"
       gradientUnits="userSpaceOnUse">
      <stop
         stop-color="#6364FF"
         id="stop2-3" />
      <stop
         offset="1"
         stop-color="#563ACC"
         id="stop3-6" />
    </linearGradient>
  </defs>
  <rect
     x="0"
     y="0"
     width="256"
     height="256"
     rx="48"
     fill="url(#bgGrad)"
     id="rect4" />
  <!-- Server blok -->
  <!-- Server "šachty" / řádky -->
  <!-- Indikátory serveru -->
  <!-- Komunikační bublina (Mastodon / sociální síť) -->
  <!-- Propojení serveru a bubliny (MCP) -->
  <!-- Malé uzly propojení -->
  <g
     id="g14"
     transform="matrix(-1,0,0,1,272.05448,25.795255)">
    <rect
       x="40"
       y="60"
       width="110"
       height="136"
       rx="16"
       fill="#111827"
       stroke="#4b5563"
       stroke-width="4"
       id="rect5" />
    <rect
       x="56"
       y="80"
       width="78"
       height="18"
       rx="4"
       fill="#1f2933"
       id="rect6" />
    <rect
       x="56"
       y="110"
       width="78"
       height="18"
       rx="4"
       fill="#1f2933"
       id="rect7" />
    <rect
       x="56"
       y="140"
       width="78"
       height="18"
       rx="4"
       fill="#1f2933"
       id="rect8" />
    <circle
       cx="70"
       cy="178"
       r="5"
       fill="#10b981"
       id="circle8" />
    <circle
       cx="90"
       cy="178"
       r="5"
       fill="#fbbf24"
       id="circle9" />
    <circle
       cx="110"
       cy="178"
       r="5"
       fill="#ef4444"
       id="circle10" />
    <path
       d="m 150,140 c 20,0 38,-8 54,-20"
       fill="none"
       stroke="url(#accentGrad)"
       stroke-width="6"
       stroke-linecap="round"
       id="path12"
       style="stroke:url(#accentGrad)" />
    <circle
       cx="204"
       cy="120"
       r="10"
       fill="#111827"
       stroke="#f9fafb"
       stroke-width="3"
       id="circle12" />
    <circle
       cx="160"
       cy="136"
       r="4"
       fill="#fbbf24"
       id="circle13" />
    <circle
       cx="176"
       cy="130"
       r="4"
       fill="#34d399"
       id="circle14" />
  </g>
  <g
     id="g3"
     transform="matrix(1.4063077,0.30397447,-0.30397447,1.4063077,30.79,46.667237)">
    <path
       d="M 60.7539,14.3904 C 59.8143,7.40642 53.7273,1.90257 46.5117,0.836066 45.2943,0.655854 40.6819,0 29.9973,0 H 29.9175 C 19.2299,0 16.937,0.655854 15.7196,0.836066 8.70488,1.87302 2.29885,6.81852 0.744617,13.8852 -0.00294988,17.3654 -0.0827298,21.2237 0.0561464,24.7629 0.254119,29.8384 0.292531,34.905 0.753482,39.9598 c 0.318668,3.3577 0.874578,6.6886 1.663558,9.9678 1.47741,6.0563 7.45795,11.0963 13.31736,13.1525 6.2733,2.1443 13.0198,2.5003 19.484,1.0281 0.7111,-0.1654 1.4134,-0.3574 2.1068,-0.5761 1.5719,-0.4992 3.4128,-1.0576 4.7661,-2.0384 0.0186,-0.0138 0.0338,-0.0316 0.0445,-0.052 0.0108,-0.0205 0.0168,-0.0431 0.0176,-0.0662 v -4.8982 c -4e-4,-0.0216 -0.0055,-0.0428 -0.0151,-0.0622 -0.0096,-0.0193 -0.0234,-0.0363 -0.0404,-0.0496 -0.017,-0.0133 -0.0368,-0.0226 -0.0579,-0.0273 -0.021,-0.0047 -0.0429,-0.0046 -0.0639,2e-4 -4.1416,0.9892 -8.3856,1.485 -12.6437,1.4772 -7.3279,0 -9.2988,-3.4772 -9.8631,-4.9248 -0.4537,-1.2511 -0.7418,-2.5562 -0.8569,-3.882 -0.0012,-0.0222 0.0029,-0.0445 0.0119,-0.0649 0.009,-0.0203 0.0227,-0.0383 0.04,-0.0524 0.0173,-0.0141 0.0376,-0.024 0.0594,-0.0287 0.0218,-0.0048 0.0444,-0.0043 0.066,0.0013 4.0725,0.9824 8.2473,1.4782 12.4368,1.4771 1.0075,0 2.0122,0 3.0198,-0.0266 4.2135,-0.1182 8.6546,-0.3338 12.8002,-1.1433 0.1034,-0.0207 0.2069,-0.0384 0.2955,-0.065 6.539,-1.2556 12.7618,-5.1966 13.3942,-15.1762 0.0236,-0.3929 0.0827,-4.1153 0.0827,-4.523 0.0029,-1.3856 0.4462,-9.829 -0.065,-15.0167 z"
       fill="url(#paint0_linear_89_8)"
       id="path1"
       style="fill:url(#paint0_linear_89_8)" />
    <path
       d="M 50.3943,22.237 V 39.5876 H 43.5185 V 22.7481 c 0,-3.5452 -1.4774,-5.3532 -4.4825,-5.3532 -3.3035,0 -4.9582,2.1389 -4.9582,6.3636 v 9.2174 h -6.8344 v -9.2174 c 0,-4.2247 -1.6577,-6.3636 -4.9612,-6.3636 -2.9873,0 -4.4795,1.808 -4.4795,5.3532 V 39.5876 H 10.9298 V 22.237 c 0,-3.5452 0.9052,-6.3616 2.7155,-8.4493 1.8675,-2.0828 4.317,-3.1522 7.3575,-3.1522 3.5192,0 6.1785,1.353 7.9514,4.0562 l 1.7108,2.8716 1.7138,-2.8716 c 1.7729,-2.7032 4.4322,-4.0562 7.9455,-4.0562 3.0376,0 5.4871,1.0694 7.3604,3.1522 1.8084,2.0857 2.7116,4.9022 2.7096,8.4493 z"
       fill="#ffffff"
       id="path2" />
  </g>
</svg>
